<?xml version="1.0" encoding="UTF-8" standalone="no"?>
<!-- Created with Inkscape (http://www.inkscape.org/) -->

<svg
   xmlns:dc="http://purl.org/dc/elements/1.1/"
   xmlns:cc="http://creativecommons.org/ns#"
   xmlns:rdf="http://www.w3.org/1999/02/22-rdf-syntax-ns#"
   xmlns:svg="http://www.w3.org/2000/svg"
   xmlns="http://www.w3.org/2000/svg"
   xmlns:sodipodi="http://sodipodi.sourceforge.net/DTD/sodipodi-0.dtd"
   xmlns:inkscape="http://www.inkscape.org/namespaces/inkscape"
   width="58.191093mm"
   height="22.404236mm"
   viewBox="0 0 58.191093 22.404236"
   version="1.1"
   id="svg8"
   inkscape:version="0.92.3 (2405546, 2018-03-11)"
   sodipodi:docname="partners-04.svg">
  <defs
     id="defs2">
    <clipPath
       id="clipPath833"
       clipPathUnits="userSpaceOnUse">
      <path
         inkscape:connector-curvature="0"
         id="path831"
         d="M 0,1024 H 768 V 0 H 0 Z" />
    </clipPath>
  </defs>
  <sodipodi:namedview
     id="base"
     pagecolor="#ffffff"
     bordercolor="#666666"
     borderopacity="1.0"
     inkscape:pageopacity="0.0"
     inkscape:pageshadow="2"
     inkscape:zoom="1.979899"
     inkscape:cx="175.05844"
     inkscape:cy="45.092631"
     inkscape:document-units="mm"
     inkscape:current-layer="g829"
     showgrid="false"
     inkscape:window-width="1920"
     inkscape:window-height="1017"
     inkscape:window-x="-8"
     inkscape:window-y="-8"
     inkscape:window-maximized="1" />
  <metadata
     id="metadata5">
    <rdf:RDF>
      <cc:Work
         rdf:about="">
        <dc:format>image/svg+xml</dc:format>
        <dc:type
           rdf:resource="http://purl.org/dc/dcmitype/StillImage" />
        <dc:title></dc:title>
      </cc:Work>
    </rdf:RDF>
  </metadata>
  <g
     inkscape:label="Layer 1"
     inkscape:groupmode="layer"
     id="layer1"
     transform="translate(-124.31953,-145.2474)">
    <g
       transform="matrix(0.35277777,0,0,-0.35277777,-0.6877121,344.44125)"
       inkscape:label="russky_standart_bank"
       id="g823">
      <g
         id="g827"
         transform="translate(1.8940361,-0.18940361)">
        <g
           clip-path="url(#clipPath833)"
           id="g829">
          <g
             transform="translate(381.1167,563.0054)"
             id="g835">
            <path
               inkscape:connector-curvature="0"
               id="path837"
               style="fill:#564932;fill-opacity:1;fill-rule:evenodd;stroke:none"
               d="m 0,0 c -14.819,0 -26.834,-12.054 -26.834,-26.917 0,-14.873 12.015,-26.934 26.834,-26.934 14.824,0 26.839,12.061 26.839,26.934 0,10.421 -5.918,19.443 -14.56,23.917 -0.08,0.074 -0.15,0.141 -0.236,0.218 0,0 -0.005,-0.04 -0.005,-0.101 -1.052,0.534 -2.15,0.995 -3.276,1.387 0.086,0.366 0.201,0.908 0.247,1.308 C 9.061,0.303 8.67,0.815 7.866,0.622 7.308,0.499 5.877,-0.003 4.625,-0.427 3.12,-0.164 1.58,0 0,0" />
          </g>
          <g
             transform="translate(381.1167,563.0054)"
             id="g839">
            <path
               inkscape:connector-curvature="0"
               id="path841"
               style="fill:none;stroke:#ded8cc;stroke-width:0.35299999;stroke-linecap:butt;stroke-linejoin:round;stroke-miterlimit:2.61299992;stroke-dasharray:none;stroke-opacity:1"
               d="m 0,0 c -14.819,0 -26.834,-12.054 -26.834,-26.917 0,-14.873 12.015,-26.934 26.834,-26.934 14.824,0 26.839,12.061 26.839,26.934 0,10.421 -5.918,19.443 -14.56,23.917 -0.08,0.074 -0.15,0.141 -0.236,0.218 0,0 -0.005,-0.04 -0.005,-0.101 -1.052,0.534 -2.15,0.995 -3.276,1.387 0.086,0.366 0.201,0.908 0.247,1.308 C 9.061,0.303 8.67,0.815 7.866,0.622 7.308,0.499 5.877,-0.003 4.625,-0.427 3.12,-0.164 1.58,0 0,0 Z" />
          </g>
          <g
             transform="translate(381.1167,507.5059)"
             id="g843">
            <path
               inkscape:connector-curvature="0"
               id="path845"
               style="fill:#564932;fill-opacity:1;fill-rule:evenodd;stroke:none"
               d="m 0,0 c 15.733,0 28.483,12.798 28.483,28.583 0,12.343 -7.803,22.864 -18.738,26.859 L 9.86,54.796 C 20.416,50.804 27.925,40.572 27.925,28.583 27.925,13.109 15.422,0.564 0,0.564 c -15.422,0 -27.92,12.545 -27.92,28.019 0,15.468 12.498,28.009 27.92,28.009 1.66,0 3.292,-0.144 4.877,-0.424 l 0.966,0.386 C 3.958,56.944 2.005,57.151 0,57.151 -15.728,57.151 -28.483,44.362 -28.483,28.583 -28.483,12.798 -15.728,0 0,0" />
          </g>
          <g
             transform="translate(381.1167,507.5059)"
             id="g847">
            <path
               inkscape:connector-curvature="0"
               id="path849"
               style="fill:none;stroke:#ded8cc;stroke-width:0.35299999;stroke-linecap:butt;stroke-linejoin:round;stroke-miterlimit:2.61299992;stroke-dasharray:none;stroke-opacity:1"
               d="m 0,0 c 15.733,0 28.483,12.798 28.483,28.583 0,12.343 -7.803,22.864 -18.738,26.859 L 9.86,54.796 C 20.416,50.804 27.925,40.572 27.925,28.583 27.925,13.109 15.422,0.564 0,0.564 c -15.422,0 -27.92,12.545 -27.92,28.019 0,15.468 12.498,28.009 27.92,28.009 1.66,0 3.292,-0.144 4.877,-0.424 l 0.966,0.386 C 3.958,56.944 2.005,57.151 0,57.151 -15.728,57.151 -28.483,44.362 -28.483,28.583 -28.483,12.798 -15.728,0 0,0 Z" />
          </g>
          <g
             transform="matrix(1.108576,0,0,1.108576,416.66813,512.86754)"
             id="g851">
            <path
               inkscape:connector-curvature="0"
               id="path853"
               style="fill:#564932;fill-opacity:1;fill-rule:evenodd;stroke:none"
               d="m 0,0 c 0.667,-0.467 0.667,-1.051 0.667,-1.453 v -7.258 c 0,-0.404 0,-0.98 -0.667,-1.453 h 3.51 c 0.874,0 4.241,0.092 4.241,3.24 0,1.914 -1.373,3.004 -3.717,3.004 -0.477,0 -1.414,-0.076 -1.891,-0.103 v 2.857 h 3.034 c 0.506,0 1.074,-0.023 1.523,-0.506 V 0.039 C 6.539,0.012 6.361,0 6.177,0 Z m 2.143,-5.063 c 0.345,0.03 0.862,0.065 1.224,0.065 0.627,0 2.723,0 2.723,-1.902 0,-0.819 -0.344,-2.192 -2.447,-2.192 -0.661,0 -1.269,0.092 -1.5,0.133 z" />
          </g>
          <g
             transform="matrix(1.108576,0,0,1.108576,416.66813,512.86754)"
             id="g855">
            <path
               inkscape:connector-curvature="0"
               id="path857"
               style="fill:none;stroke:#ded8cc;stroke-width:0.35299999;stroke-linecap:butt;stroke-linejoin:round;stroke-miterlimit:2.61299992;stroke-dasharray:none;stroke-opacity:1"
               d="m 0,0 c 0.667,-0.467 0.667,-1.051 0.667,-1.453 v -7.258 c 0,-0.404 0,-0.98 -0.667,-1.453 h 3.51 c 0.874,0 4.241,0.092 4.241,3.24 0,1.914 -1.373,3.004 -3.717,3.004 -0.477,0 -1.414,-0.076 -1.891,-0.103 v 2.857 h 3.034 c 0.506,0 1.074,-0.023 1.523,-0.506 V 0.039 C 6.539,0.012 6.361,0 6.177,0 Z m 2.143,-5.063 c 0.345,0.03 0.862,0.065 1.224,0.065 0.627,0 2.723,0 2.723,-1.902 0,-0.819 -0.344,-2.192 -2.447,-2.192 -0.661,0 -1.269,0.092 -1.5,0.133 z" />
          </g>
          <g
             transform="matrix(1.108576,0,0,1.108576,429.96245,512.86754)"
             id="g859">
            <path
               inkscape:connector-curvature="0"
               id="path861"
               style="fill:#564932;fill-opacity:1;fill-rule:evenodd;stroke:none"
               d="M 0,0 C 0.592,-0.277 0.391,-0.826 0.333,-0.975 L -2.563,-8.32 c -0.27,-0.698 -0.563,-1.348 -1.316,-1.844 h 2.735 c -0.678,0.484 -0.545,1.072 -0.344,1.586 l 0.907,2.277 H 3.315 L 4.413,-9.027 C 4.54,-9.361 4.654,-9.859 3.976,-10.164 h 3.115 c -0.713,0.381 -1,0.928 -1.236,1.498 L 2.373,0 Z m 1.356,-1.32 1.58,-4.006 h -3.138 z" />
          </g>
          <g
             transform="matrix(1.108576,0,0,1.108576,429.96245,512.86754)"
             id="g863">
            <path
               inkscape:connector-curvature="0"
               id="path865"
               style="fill:none;stroke:#ded8cc;stroke-width:0.35299999;stroke-linecap:butt;stroke-linejoin:round;stroke-miterlimit:2.61299992;stroke-dasharray:none;stroke-opacity:1"
               d="M 0,0 C 0.592,-0.277 0.391,-0.826 0.333,-0.975 L -2.563,-8.32 c -0.27,-0.698 -0.563,-1.348 -1.316,-1.844 h 2.735 c -0.678,0.484 -0.545,1.072 -0.344,1.586 l 0.907,2.277 H 3.315 L 4.413,-9.027 C 4.54,-9.361 4.654,-9.859 3.976,-10.164 h 3.115 c -0.713,0.381 -1,0.928 -1.236,1.498 L 2.373,0 Z m 1.356,-1.32 1.58,-4.006 h -3.138 z" />
          </g>
          <g
             transform="matrix(1.108576,0,0,1.108576,447.21787,508.42468)"
             id="g867">
            <path
               inkscape:connector-curvature="0"
               id="path869"
               style="fill:#564932;fill-opacity:1;fill-rule:evenodd;stroke:none"
               d="M 0,0 V 2.555 C 0,3.033 -0.017,3.541 -0.666,4.008 H 2.138 C 1.488,3.541 1.477,3.033 1.477,2.555 v -7.258 c 0,-0.479 0.011,-0.981 0.661,-1.453 H -0.666 C -0.017,-5.684 0,-5.182 0,-4.703 v 3.545 h -5.573 v -3.545 c 0,-0.479 0.017,-0.981 0.666,-1.453 H -7.71 c 0.648,0.472 0.666,0.974 0.666,1.453 v 7.258 c 0,0.478 -0.018,0.986 -0.666,1.453 h 2.803 C -5.556,3.541 -5.573,3.033 -5.573,2.555 V 0 Z" />
          </g>
          <g
             transform="matrix(1.108576,0,0,1.108576,524.69624,479.65903)"
             id="g871">
            <path
               inkscape:connector-curvature="0"
               id="path873"
               style="fill:none;stroke:#ded8cc;stroke-width:0.35299999;stroke-linecap:butt;stroke-linejoin:round;stroke-miterlimit:2.61299992;stroke-dasharray:none;stroke-opacity:1"
               d="m -69.889931,25.948294 v 2.555 c 0,0.478 -0.017,0.986 -0.666,1.453 h 2.804 c -0.65,-0.467 -0.661,-0.975 -0.661,-1.453 v -7.258 c 0,-0.479 0.011,-0.981 0.661,-1.453 h -2.804 c 0.649,0.472 0.666,0.974 0.666,1.453 v 3.545 h -5.573 v -3.545 c 0,-0.479 0.017,-0.981 0.666,-1.453 h -2.803 c 0.648,0.472 0.666,0.974 0.666,1.453 v 7.258 c 0,0.478 -0.018,0.986 -0.666,1.453 h 2.803 c -0.649,-0.467 -0.666,-0.975 -0.666,-1.453 v -2.555 z" />
          </g>
          <g
             transform="matrix(1.108576,0,0,1.108576,457.13001,510.8215)"
             id="g875">
            <path
               inkscape:connector-curvature="0"
               id="path877"
               style="fill:#564932;fill-opacity:1;fill-rule:evenodd;stroke:none"
               d="m 0,0 c 0.391,0.525 0.592,0.842 0.592,1.137 0,0.345 -0.277,0.588 -0.524,0.709 H 2.851 L -0.667,-2.727 1,-4.936 C 2.315,-6.693 3.051,-7.592 4.31,-8.318 L 2.764,-8.387 C 1.62,-8.445 1.04,-7.563 0.315,-6.561 l -2.574,3.512 z M -1.885,1.846 C -2.546,1.379 -2.546,0.795 -2.546,0.393 v -7.258 c 0,-0.405 0,-0.981 0.661,-1.453 h -2.803 c 0.666,0.472 0.666,1.048 0.666,1.453 v 7.258 c 0,0.402 0,0.986 -0.666,1.453 z" />
          </g>
          <g
             transform="matrix(1.108576,0,0,1.108576,457.13001,510.8215)"
             id="g879">
            <path
               inkscape:connector-curvature="0"
               id="path881"
               style="fill:none;stroke:#ded8cc;stroke-width:0.35299999;stroke-linecap:butt;stroke-linejoin:round;stroke-miterlimit:2.61299992;stroke-dasharray:none;stroke-opacity:1"
               d="m 0,0 c 0.391,0.525 0.592,0.842 0.592,1.137 0,0.345 -0.277,0.588 -0.524,0.709 H 2.851 L -0.667,-2.727 1,-4.936 C 2.315,-6.693 3.051,-7.592 4.31,-8.318 L 2.764,-8.387 C 1.62,-8.445 1.04,-7.563 0.315,-6.561 l -2.574,3.512 z M -1.885,1.846 C -2.546,1.379 -2.546,0.795 -2.546,0.393 v -7.258 c 0,-0.405 0,-0.981 0.661,-1.453 h -2.803 c 0.666,0.472 0.666,1.048 0.666,1.453 v 7.258 c 0,0.402 0,0.986 -0.666,1.453 z" />
          </g>
          <g
             transform="translate(354.2827,536.0884)"
             id="g883">
            <path
               inkscape:connector-curvature="0"
               id="path885"
               style="fill:#ffffff;fill-opacity:1;fill-rule:evenodd;stroke:none"
               d="M 0,0 C 0,14.863 12.015,26.917 26.834,26.917 41.658,26.917 53.673,14.863 53.673,0 53.673,-14.873 41.658,-26.934 26.834,-26.934 12.015,-26.934 0,-14.873 0,0" />
          </g>
          <g
             transform="translate(354.2827,536.0884)"
             id="g887">
            <path
               inkscape:connector-curvature="0"
               id="path889"
               style="fill:none;stroke:#564932;stroke-width:0.095;stroke-linecap:butt;stroke-linejoin:round;stroke-miterlimit:2.61299992;stroke-dasharray:none;stroke-opacity:1"
               d="M 0,0 C 0,14.863 12.015,26.917 26.834,26.917 41.658,26.917 53.673,14.863 53.673,0 53.673,-14.873 41.658,-26.934 26.834,-26.934 12.015,-26.934 0,-14.873 0,0 Z" />
          </g>
          <g
             transform="translate(390.9766,562.3018)"
             id="g891">
            <path
               inkscape:connector-curvature="0"
               id="path893"
               style="fill:#564932;fill-opacity:1;fill-rule:evenodd;stroke:none"
               d="m 0,0 c 10.556,-3.992 18.065,-14.224 18.065,-26.213 0,-15.474 -12.502,-28.018 -27.925,-28.018 -15.422,0 -27.92,12.544 -27.92,28.018 0,15.468 12.498,28.009 27.92,28.009 1.66,0 3.293,-0.144 4.878,-0.423 l 0.965,0.385 c -1.884,0.39 -3.838,0.597 -5.843,0.597 -15.727,0 -28.483,-12.789 -28.483,-28.568 0,-15.785 12.756,-28.583 28.483,-28.583 15.733,0 28.483,12.798 28.483,28.583 0,12.343 -7.803,22.864 -18.738,26.859 z" />
          </g>
          <g
             transform="translate(385.2422,556.5747)"
             id="g895">
            <path
               inkscape:connector-curvature="0"
               id="path897"
               style="fill:#564932;fill-opacity:1;fill-rule:evenodd;stroke:none"
               d="m 0,0 c -2.339,-1.899 -6.188,-6.442 -8.004,-10.699 -0.139,-0.318 0,-0.366 0.448,-0.093 0.453,0.274 1.758,0.902 2.384,1.084 0,0 -0.678,-2.358 -0.902,-3.657 -0.178,-1.07 0.707,-0.987 1.259,-0.86 0.552,0.124 2.838,0.225 3.24,0.274 0,0 -2.114,0.499 -2.338,1.358 -0.224,0.853 0.379,2.761 0.81,4.055 0.092,0.277 -0.046,0.678 -0.494,0.502 -0.454,-0.179 -1.08,-0.314 -1.396,-0.502 0,0 1.982,4.877 5.039,8.4 L 0,0 10.486,-2.173 c -0.229,-1.779 -0.879,-1.62 -1.172,-1.534 -0.315,0.092 -0.402,0.226 -1.35,0.314 -0.299,0.029 -1.684,0.185 -0.943,-0.4 1.19,-0.954 2.201,-2.892 2.201,-2.892 0.137,0.632 -0.184,1.534 -0.356,1.848 -0.178,0.32 0.046,0.407 0.264,0.363 0.229,-0.043 0.357,-0.129 0.77,-0.363 0.403,-0.222 0.672,-0.181 0.765,0.363 0.074,0.471 0.051,1.43 -0.041,2.298 -0.012,0.063 -0.114,0.094 -0.138,0.003 z M 2.97,4.869 C 3.103,5.018 2.97,5.14 2.614,4.911 2.252,4.69 0.666,3.733 -0.402,1.937 -0.534,1.709 -0.454,1.372 0.114,1.568 0.811,1.813 1.528,1.937 1.844,1.983 2.161,2.029 2.161,2.251 1.937,2.338 1.712,2.433 1.66,2.52 1.758,2.882 1.844,3.243 2.477,4.283 2.97,4.869 m -20.679,-30.688 c 0.275,0.34 0.85,0.819 1.608,1.194 1.08,0.547 4.161,0.904 5.867,0.881 1.011,-0.011 1.69,-0.473 2.161,-0.945 0.47,-0.473 -0.339,-0.542 -0.742,-0.202 -0.408,0.334 -0.856,0.45 -1.327,0.45 -0.471,0 -0.971,-0.184 -1.235,-0.381 -0.27,-0.207 -0.339,-0.484 -1.012,-0.68 -0.816,-0.23 -1.757,0.507 -1.757,0.507 0.66,-1.251 1.797,-1.21 2.43,-1.055 0.46,0.122 0.603,0.335 1.281,0.346 1.08,0.017 1.551,-0.611 1.551,-0.611 -1.35,0.069 -3.637,-0.778 -4.722,-1.014 -1.351,-0.3 -2.632,-0.34 -2.632,-0.34 0.872,-1.084 2.16,-1.084 3.108,-1.084 0.942,0 3.976,0.225 5.798,0.069 2.287,-0.19 4.114,-1.695 4.114,-3.926 0,-2.231 -1.546,-3.447 -1.546,-3.447 1.954,0.605 2.764,2.161 2.764,2.161 1.041,-4.023 -1.121,-7.24 -3.097,-8.554 -1.643,-1.096 -6.574,-2.226 -10.36,-0.41 -4.189,2.012 -5.775,3.972 -5.775,3.972 9.107,-0.743 13.561,1.787 13.561,1.787 -8.228,-0.478 -13.969,1.609 -17.681,3.24 -1.482,2.363 -2.562,4.946 -3.195,7.754 v -0.006 c 6.81,-5.142 12.849,-6.024 12.849,-6.024 -7.355,3.995 -11.015,8.468 -13.447,12.929 0.128,2.605 0.645,5.041 1.495,7.379 l 0.017,0.04 c 2.729,-7.284 5.729,-9.453 5.729,-9.453 -2.971,6.775 -2.948,11.626 -2.678,15.281 1.138,1.62 2.431,3.055 3.908,4.364 l 0.022,0.027 c -1.148,-6.503 0.231,-10.729 0.231,-10.729 0,5.142 2.879,11.261 5.171,14.38 1.454,0.73 2.856,1.268 4.448,1.715 h 0.005 c -2.092,-2.637 -3.011,-5.197 -3.011,-5.197 4.293,4.099 11.4,6.56 12.48,6.838 1.08,0.264 4.189,1.417 5.068,1.616 C 4.545,7.246 4.936,6.733 4.884,6.243 4.815,5.606 4.545,4.549 4.545,4.549 6.929,3.966 7.964,2.79 7.964,2.79 7.872,3.107 7.918,3.649 7.918,3.649 c 3.287,-2.934 4.183,-4.333 4.275,-6.992 0.092,-2.664 1.258,-3.07 1.931,-3.43 0.678,-0.361 2.344,-1.315 2.879,-1.765 0.401,-0.339 0.229,-0.72 0,-0.991 -0.225,-0.268 -0.225,-0.361 -0.265,-0.675 -0.202,-1.383 -0.816,-1.942 -1.667,-2.254 -0.856,-0.314 -1.803,0.179 -1.803,0.179 -0.943,-1.038 -1.122,-0.36 -1.167,0.043 -0.04,0.407 -0.54,0.09 -0.896,-0.043 -0.362,-0.135 -0.495,0.36 -0.495,0.36 -1.711,0.225 -2.459,-0.789 -2.459,-0.789 1.488,-0.202 2.235,-1.217 2.298,-1.623 0.069,-0.415 0.742,-0.136 0.742,-0.136 0,0 0.063,0.136 0.339,0.268 0.269,0.136 0.339,0.07 0.269,-0.268 -0.068,-0.337 -0.137,-0.611 -0.137,-0.611 l 0.747,-0.476 c -0.276,-1.83 -1.08,-1.752 -1.488,-1.553 -2.592,1.3 -7.217,1.553 -7.217,1.553 0.269,0.407 0.919,0.929 0.919,0.929 -11.871,0 -13.877,-1.447 -14.486,-2.211 -0.42,-0.53 -0.057,-1.352 -0.057,-1.352 -1.414,-0.271 -4.999,-1.179 -6.373,-2.443 -1.321,-1.21 -1.763,-4.053 -1.809,-5.101 -0.012,-0.22 0.201,-0.214 0.293,-0.087" />
          </g>
          <g
             transform="translate(398.7275,518.0269)"
             id="g899">
            <path
               inkscape:connector-curvature="0"
               id="path901"
               style="fill:#564932;fill-opacity:1;fill-rule:evenodd;stroke:none"
               d="m 0,0 c -1.058,3.551 -3.976,5.816 -5.597,7.783 -0.661,0.801 -1.637,1.925 -1.637,1.925 0.948,-0.542 2.748,-0.812 2.748,-0.812 -0.495,0.409 -1.622,1.758 -2.071,2.305 -1.252,1.505 -3.423,3.188 -5.038,3.92 -3.172,1.442 -6.476,1.626 -6.924,1.712 -0.454,0.093 -1.396,-0.086 -0.816,0.819 0.586,0.904 4.005,3.564 4.005,3.564 -0.718,0 -3.867,-0.277 -4.816,-0.406 -0.942,-0.139 -1.16,0.178 -1.211,0.807 0,0 -1.897,-1.79 -0.989,-2.704 0.138,-0.136 0.54,-0.182 1.04,0.043 0.489,0.228 1.477,0.545 1.839,0.586 0,0 -0.81,-1.262 -0.988,-1.804 -0.179,-0.542 -0.225,-0.812 0.626,-1.083 0.856,-0.265 5.177,-1.626 7.826,-3.43 2.654,-1.805 5.401,-4.111 7.43,-8.348 2.022,-4.249 0.907,-7.465 0.592,-8.053 1.454,0.928 2.774,1.988 4.004,3.194 z" />
          </g>
          <g
             transform="translate(404.6455,527.0205)"
             id="g903">
            <path
               inkscape:connector-curvature="0"
               id="path905"
               style="fill:#564932;fill-opacity:1;fill-rule:evenodd;stroke:none"
               d="m 0,0 c -2.602,2.121 -7.17,5.909 -12.744,7.211 0,0 7.953,-3.188 10.791,-11.212 C -1.183,-2.727 -0.539,-1.407 0,0" />
          </g>
          <g
             transform="translate(389.0342,512.124)"
             id="g907">
            <path
               inkscape:connector-curvature="0"
               id="path909"
               style="fill:#564932;fill-opacity:1;fill-rule:evenodd;stroke:none"
               d="m 0,0 c 0.851,1.989 1.787,6.716 0.799,10.376 0,0 0.183,-8.612 -5.706,-11.454 1.655,0.196 3.355,0.565 4.895,1.073 z" />
          </g>
          <g
             transform="translate(406.3184,536.4224)"
             id="g911">
            <path
               inkscape:connector-curvature="0"
               id="path913"
               style="fill:#564932;fill-opacity:1;fill-rule:evenodd;stroke:none"
               d="m 0,0 c -0.764,0.31 -5.471,1.647 -5.471,1.647 1.575,0.087 2.207,1.257 2.207,1.257 -1.482,-0.4 -3.735,-0.582 -5.619,-0.311 0,0 4.362,-1.894 8.705,-6.029 v 0.04 c 0.115,0.998 0.184,2.019 0.184,3.062 0,0.126 0,0.196 -0.006,0.334" />
          </g>
          <g
             transform="matrix(1.108576,0,0,1.108576,484.79194,522.18159)"
             id="g915">
            <path
               inkscape:connector-curvature="0"
               id="path917"
               style="fill:#ffffff;fill-opacity:1;fill-rule:evenodd;stroke:none"
               d="M 0,0 1.127,2.541 2.241,0 Z m 6.747,-2.549 -4.132,9.42 h -4.074 c 0.528,-0.381 1.126,-1.019 1.368,-1.58 l -3.46,-7.846 c -0.356,-0.812 -0.626,-1.193 -1.482,-1.988 h 4.091 c -0.517,0.588 -0.569,1.09 -0.356,1.586 0,0 0.218,0.506 0.361,0.848 H 3.172 L 3.54,-2.957 C 3.781,-3.494 3.781,-3.822 3.195,-4.543 h 5.119 c -0.843,0.744 -1.189,1.135 -1.567,1.994" />
          </g>
          <g
             transform="matrix(1.108576,0,0,1.108576,484.79194,522.18159)"
             id="g919">
            <path
               inkscape:connector-curvature="0"
               id="path921"
               style="fill:none;stroke:#564932;stroke-width:0.095;stroke-linecap:butt;stroke-linejoin:round;stroke-miterlimit:2.61299992;stroke-dasharray:none;stroke-opacity:1"
               d="M 0,0 1.127,2.541 2.241,0 Z m 6.747,-2.549 -4.132,9.42 h -4.074 c 0.528,-0.381 1.126,-1.019 1.368,-1.58 l -3.46,-7.846 c -0.356,-0.812 -0.626,-1.193 -1.482,-1.988 h 4.091 c -0.517,0.588 -0.569,1.09 -0.356,1.586 0,0 0.218,0.506 0.361,0.848 H 3.172 L 3.54,-2.957 C 3.781,-3.494 3.781,-3.822 3.195,-4.543 h 5.119 c -0.843,0.744 -1.189,1.135 -1.567,1.994 z" />
          </g>
          <g
             transform="matrix(1.108576,0,0,1.108576,461.02666,547.01583)"
             id="g923">
            <path
               inkscape:connector-curvature="0"
               id="path925"
               style="fill:#ffffff;fill-opacity:1;fill-rule:evenodd;stroke:none"
               d="M 0,0 C 1.672,0 2.045,-0.547 2.85,-1.545 L 4.544,2.352 C 3.924,1.967 3.344,1.66 2.597,1.66 c -0.873,0 -1.31,0.334 -2.723,0.334 -3.598,0 -6.022,-2.369 -6.022,-5.896 0,-3.598 2.19,-5.926 5.843,-5.926 2.023,0 3.459,0.928 4.419,2.271 L 3.287,-5.684 C 2.384,-6.975 1.424,-7.84 0,-7.834 c -1.822,0 -2.89,1.781 -2.89,3.932 C -2.89,-1.832 -1.902,0 0,0" />
          </g>
          <g
             transform="matrix(1.108576,0,0,1.108576,461.02666,547.01583)"
             id="g927">
            <path
               inkscape:connector-curvature="0"
               id="path929"
               style="fill:none;stroke:#564932;stroke-width:0.095;stroke-linecap:butt;stroke-linejoin:round;stroke-miterlimit:2.61299992;stroke-dasharray:none;stroke-opacity:1"
               d="M 0,0 C 1.672,0 2.045,-0.547 2.85,-1.545 L 4.544,2.352 C 3.924,1.967 3.344,1.66 2.597,1.66 c -0.873,0 -1.31,0.334 -2.723,0.334 -3.598,0 -6.022,-2.369 -6.022,-5.896 0,-3.598 2.19,-5.926 5.843,-5.926 2.023,0 3.459,0.928 4.419,2.271 L 3.287,-5.684 C 2.384,-6.975 1.424,-7.84 0,-7.834 c -1.822,0 -2.89,1.781 -2.89,3.932 C -2.89,-1.832 -1.902,0 0,0 Z" />
          </g>
          <g
             transform="matrix(1.108576,0,0,1.108576,477.63908,538.69517)"
             id="g931">
            <path
               inkscape:connector-curvature="0"
               id="path933"
               style="fill:#ffffff;fill-opacity:1;fill-rule:evenodd;stroke:none"
               d="m 0,0 -3.494,4.227 3.282,3.134 c 0.988,0.94 1.448,1.315 2.437,1.944 h -5.351 c 0.644,-0.709 0.712,-0.975 0.253,-1.424 0.006,0 -3.194,-3.055 -3.194,-3.055 v 2.692 c 0,0.818 0.298,1.291 0.775,1.787 H -9.98 c 0.487,-0.496 0.781,-0.969 0.781,-1.787 v -7.846 c 0,-0.813 -0.294,-1.279 -0.781,-1.781 h 4.688 c -0.477,0.502 -0.775,0.968 -0.775,1.781 V 2.52 l 2.631,-3.165 c 0.454,-0.548 0.299,-0.83 -0.224,-1.464 H 2.333 C 1.281,-1.389 0.868,-1.055 0,0" />
          </g>
          <g
             transform="matrix(1.108576,0,0,1.108576,477.63908,538.69517)"
             id="g935">
            <path
               inkscape:connector-curvature="0"
               id="path937"
               style="fill:none;stroke:#564932;stroke-width:0.095;stroke-linecap:butt;stroke-linejoin:round;stroke-miterlimit:2.61299992;stroke-dasharray:none;stroke-opacity:1"
               d="m 0,0 -3.494,4.227 3.282,3.134 c 0.988,0.94 1.448,1.315 2.437,1.944 h -5.351 c 0.644,-0.709 0.712,-0.975 0.253,-1.424 0.006,0 -3.194,-3.055 -3.194,-3.055 v 2.692 c 0,0.818 0.298,1.291 0.775,1.787 H -9.98 c 0.487,-0.496 0.781,-0.969 0.781,-1.787 v -7.846 c 0,-0.813 -0.294,-1.279 -0.781,-1.781 h 4.688 c -0.477,0.502 -0.775,0.968 -0.775,1.781 V 2.52 l 2.631,-3.165 c 0.454,-0.548 0.299,-0.83 -0.224,-1.464 H 2.333 C 1.281,-1.389 0.868,-1.055 0,0 Z" />
          </g>
          <g
             transform="matrix(1.108576,0,0,1.108576,493.13158,549.01003)"
             id="g939">
            <path
               inkscape:connector-curvature="0"
               id="path941"
               style="fill:#ffffff;fill-opacity:1;fill-rule:evenodd;stroke:none"
               d="m 0,0 h -4.683 c 0.476,-0.496 0.776,-0.969 0.776,-1.787 v -0.047 l -3.69,-4.375 v 4.422 c 0,0.818 0.293,1.291 0.776,1.787 h -4.683 c 0.477,-0.496 0.775,-0.969 0.775,-1.787 v -7.846 c 0,-0.812 -0.298,-1.279 -0.775,-1.781 h 4.683 c -0.483,0.502 -0.776,0.969 -0.776,1.781 v 0.086 l 3.69,4.381 v -4.467 c 0,-0.812 -0.3,-1.279 -0.776,-1.781 H 0 c -0.477,0.502 -0.776,0.969 -0.776,1.781 v 7.846 c 0,0.818 0.299,1.291 0.776,1.787" />
          </g>
          <g
             transform="matrix(1.108576,0,0,1.108576,493.13158,549.01003)"
             id="g943">
            <path
               inkscape:connector-curvature="0"
               id="path945"
               style="fill:none;stroke:#564932;stroke-width:0.095;stroke-linecap:butt;stroke-linejoin:round;stroke-miterlimit:2.61299992;stroke-dasharray:none;stroke-opacity:1"
               d="m 0,0 h -4.683 c 0.476,-0.496 0.776,-0.969 0.776,-1.787 v -0.047 l -3.69,-4.375 v 4.422 c 0,0.818 0.293,1.291 0.776,1.787 h -4.683 c 0.477,-0.496 0.775,-0.969 0.775,-1.787 v -7.846 c 0,-0.812 -0.298,-1.279 -0.775,-1.781 h 4.683 c -0.483,0.502 -0.776,0.969 -0.776,1.781 v 0.086 l 3.69,4.381 v -4.467 c 0,-0.812 -0.3,-1.279 -0.776,-1.781 H 0 c -0.477,0.502 -0.776,0.969 -0.776,1.781 v 7.846 c 0,0.818 0.299,1.291 0.776,1.787 z" />
          </g>
          <g
             transform="matrix(1.108576,0,0,1.108576,501.53296,549.72673)"
             id="g947">
            <path
               inkscape:connector-curvature="0"
               id="path949"
               style="fill:#ffffff;fill-opacity:1;fill-rule:evenodd;stroke:none"
               d="m 0,0 c 2.045,0 3.04,0.846 3.04,1.867 0,0.455 -0.288,0.992 -0.759,1.418 H 0.247 C 0.764,2.783 0.908,2.322 0.908,2.109 0.908,1.908 0.678,1.498 0,1.498 c -0.684,0 -0.908,0.41 -0.908,0.611 0,0.213 0.133,0.674 0.661,1.176 h -2.04 C -2.747,2.859 -3.045,2.322 -3.045,1.867 -3.045,0.846 -2.051,0 0,0" />
          </g>
          <g
             transform="matrix(1.108576,0,0,1.108576,501.53296,549.72673)"
             id="g951">
            <path
               inkscape:connector-curvature="0"
               id="path953"
               style="fill:none;stroke:#564932;stroke-width:0.095;stroke-linecap:butt;stroke-linejoin:round;stroke-miterlimit:2.61299992;stroke-dasharray:none;stroke-opacity:1"
               d="m 0,0 c 2.045,0 3.04,0.846 3.04,1.867 0,0.455 -0.288,0.992 -0.759,1.418 H 0.247 C 0.764,2.783 0.908,2.322 0.908,2.109 0.908,1.908 0.678,1.498 0,1.498 c -0.684,0 -0.908,0.41 -0.908,0.611 0,0.213 0.133,0.674 0.661,1.176 h -2.04 C -2.747,2.859 -3.045,2.322 -3.045,1.867 -3.045,0.846 -2.051,0 0,0 Z" />
          </g>
          <g
             transform="matrix(1.108576,0,0,1.108576,438.75068,549.01003)"
             id="g955">
            <path
               inkscape:connector-curvature="0"
               id="path957"
               style="fill:#ffffff;fill-opacity:1;fill-rule:evenodd;stroke:none"
               d="m 0,0 c 0.299,-0.49 0.391,-0.836 0.086,-1.592 -0.005,0 -1.327,-3.199 -2.045,-4.933 l -2.115,4.933 C -4.361,-0.951 -4.367,-0.564 -4.028,0 h -4.925 c 0.685,-0.623 1.046,-1.137 1.477,-1.994 -0.005,0 3.252,-7.178 3.839,-8.481 -0.782,-1.828 -1.454,-2.548 -2.344,-2.548 -1.138,0 -1.615,0.744 -2.27,1.966 l -1.138,-2.427 c 0.632,-0.662 1.73,-1.592 3.339,-1.592 2.643,0 3.688,1.955 4.7,4.324 l 3.735,8.773 C 2.787,-1.055 3.149,-0.525 3.626,0 Z" />
          </g>
          <g
             transform="matrix(1.108576,0,0,1.108576,438.75068,549.01003)"
             id="g959">
            <path
               inkscape:connector-curvature="0"
               id="path961"
               style="fill:none;stroke:#564932;stroke-width:0.095;stroke-linecap:butt;stroke-linejoin:round;stroke-miterlimit:2.61299992;stroke-dasharray:none;stroke-opacity:1"
               d="m 0,0 c 0.299,-0.49 0.391,-0.836 0.086,-1.592 -0.005,0 -1.327,-3.199 -2.045,-4.933 l -2.115,4.933 C -4.361,-0.951 -4.367,-0.564 -4.028,0 h -4.925 c 0.685,-0.623 1.046,-1.137 1.477,-1.994 -0.005,0 3.252,-7.178 3.839,-8.481 -0.782,-1.828 -1.454,-2.548 -2.344,-2.548 -1.138,0 -1.615,0.744 -2.27,1.966 l -1.138,-2.427 c 0.632,-0.662 1.73,-1.592 3.339,-1.592 2.643,0 3.688,1.955 4.7,4.324 l 3.735,8.773 C 2.787,-1.055 3.149,-0.525 3.626,0 Z" />
          </g>
          <g
             transform="matrix(1.108576,0,0,1.108576,422.3292,543.08609)"
             id="g963">
            <path
               inkscape:connector-curvature="0"
               id="path965"
               style="fill:#ffffff;fill-opacity:1;fill-rule:evenodd;stroke:none"
               d="m 0,0 h -0.833 v 4.791 h 0.62 C 1.437,4.791 2.51,4.254 2.51,2.541 2.51,0.807 1.712,0 0,0 M 4.723,5.604 C 3.74,6.59 2.235,7.113 0.373,7.113 H -5.016 C -4.379,6.486 -4.143,6.018 -4.143,5.119 V -4.07 c 0,-0.905 -0.236,-1.366 -0.873,-2 h 5.05 c -0.638,0.634 -0.867,1.095 -0.867,2 v 1.736 h 1.206 c 1.753,0 3.27,0.559 4.275,1.566 0.839,0.842 1.281,1.985 1.281,3.293 0,1.221 -0.419,2.282 -1.206,3.079" />
          </g>
          <g
             transform="matrix(1.108576,0,0,1.108576,422.3292,543.08609)"
             id="g967">
            <path
               inkscape:connector-curvature="0"
               id="path969"
               style="fill:none;stroke:#564932;stroke-width:0.095;stroke-linecap:butt;stroke-linejoin:round;stroke-miterlimit:2.61299992;stroke-dasharray:none;stroke-opacity:1"
               d="m 0,0 h -0.833 v 4.791 h 0.62 C 1.437,4.791 2.51,4.254 2.51,2.541 2.51,0.807 1.712,0 0,0 Z M 4.723,5.604 C 3.74,6.59 2.235,7.113 0.373,7.113 H -5.016 C -4.379,6.486 -4.143,6.018 -4.143,5.119 V -4.07 c 0,-0.905 -0.236,-1.366 -0.873,-2 h 5.05 c -0.638,0.634 -0.867,1.095 -0.867,2 v 1.736 h 1.206 c 1.753,0 3.27,0.559 4.275,1.566 0.839,0.842 1.281,1.985 1.281,3.293 0,1.221 -0.419,2.282 -1.206,3.079 z" />
          </g>
          <g
             transform="matrix(1.108576,0,0,1.108576,449.17208,538.33143)"
             id="g971">
            <path
               inkscape:connector-curvature="0"
               id="path973"
               style="fill:#ffffff;fill-opacity:1;fill-rule:evenodd;stroke:none"
               d="m 0,0 c -1.811,0 -2.884,1.781 -2.884,3.932 0,2.07 0.993,3.902 2.884,3.902 1.683,0 2.051,-0.547 2.861,-1.545 l 1.684,3.897 C 3.93,9.801 3.349,9.494 2.603,9.494 c -0.874,0 -1.311,0.334 -2.724,0.334 -3.597,0 -6.016,-2.369 -6.016,-5.896 0,-3.598 2.19,-5.926 5.838,-5.926 2.023,0 3.459,0.928 4.424,2.271 L 3.292,2.15 C 2.39,0.859 1.437,-0.006 0,0" />
          </g>
          <g
             transform="matrix(1.108576,0,0,1.108576,449.17208,538.33143)"
             id="g975">
            <path
               inkscape:connector-curvature="0"
               id="path977"
               style="fill:none;stroke:#564932;stroke-width:0.095;stroke-linecap:butt;stroke-linejoin:round;stroke-miterlimit:2.61299992;stroke-dasharray:none;stroke-opacity:1"
               d="m 0,0 c -1.811,0 -2.884,1.781 -2.884,3.932 0,2.07 0.993,3.902 2.884,3.902 1.683,0 2.051,-0.547 2.861,-1.545 l 1.684,3.897 C 3.93,9.801 3.349,9.494 2.603,9.494 c -0.874,0 -1.311,0.334 -2.724,0.334 -3.597,0 -6.016,-2.369 -6.016,-5.896 0,-3.598 2.19,-5.926 5.838,-5.926 2.023,0 3.459,0.928 4.424,2.271 L 3.292,2.15 C 2.39,0.859 1.437,-0.006 0,0 Z" />
          </g>
          <g
             transform="matrix(1.108576,0,0,1.108576,465.1862,529.79879)"
             id="g979">
            <path
               inkscape:connector-curvature="0"
               id="path981"
               style="fill:#ffffff;fill-opacity:1;fill-rule:evenodd;stroke:none"
               d="m 0,0 h -4.688 c 0.481,-0.496 0.78,-0.969 0.78,-1.787 v -2.682 h -3.384 v 2.682 c 0,0.818 0.287,1.291 0.775,1.787 h -4.688 c 0.482,-0.496 0.781,-0.969 0.781,-1.787 v -7.846 c 0,-0.812 -0.299,-1.279 -0.781,-1.781 h 4.688 c -0.488,0.502 -0.775,0.969 -0.775,1.781 v 3.028 h 3.384 v -3.028 c 0,-0.812 -0.299,-1.279 -0.78,-1.781 H 0 c -0.482,0.502 -0.781,0.969 -0.781,1.781 v 7.846 c 0,0.818 0.299,1.291 0.781,1.787" />
          </g>
          <g
             transform="matrix(1.108576,0,0,1.108576,465.1862,529.79879)"
             id="g983">
            <path
               inkscape:connector-curvature="0"
               id="path985"
               style="fill:none;stroke:#564932;stroke-width:0.095;stroke-linecap:butt;stroke-linejoin:round;stroke-miterlimit:2.61299992;stroke-dasharray:none;stroke-opacity:1"
               d="m 0,0 h -4.688 c 0.481,-0.496 0.78,-0.969 0.78,-1.787 v -2.682 h -3.384 v 2.682 c 0,0.818 0.287,1.291 0.775,1.787 h -4.688 c 0.482,-0.496 0.781,-0.969 0.781,-1.787 v -7.846 c 0,-0.812 -0.299,-1.279 -0.781,-1.781 h 4.688 c -0.488,0.502 -0.775,0.969 -0.775,1.781 v 3.028 h 3.384 v -3.028 c 0,-0.812 -0.299,-1.279 -0.78,-1.781 H 0 c -0.482,0.502 -0.781,0.969 -0.781,1.781 v 7.846 c 0,0.818 0.299,1.291 0.781,1.787 z" />
          </g>
          <g
             transform="matrix(1.108576,0,0,1.108576,443.48982,522.18159)"
             id="g987">
            <path
               inkscape:connector-curvature="0"
               id="path989"
               style="fill:#ffffff;fill-opacity:1;fill-rule:evenodd;stroke:none"
               d="M 0,0 1.126,2.541 2.235,0 Z M 6.745,-2.549 2.603,6.871 H -1.466 C -0.932,6.49 -0.345,5.852 -0.098,5.291 L -3.552,-2.555 C -3.914,-3.367 -4.184,-3.748 -5.04,-4.543 h 4.092 c -0.518,0.588 -0.574,1.09 -0.363,1.586 0,0 0.225,0.506 0.374,0.848 H 3.172 L 3.533,-2.957 C 3.775,-3.494 3.775,-3.822 3.194,-4.543 h 5.115 c -0.839,0.744 -1.19,1.135 -1.564,1.994" />
          </g>
          <g
             transform="matrix(1.108576,0,0,1.108576,443.48982,522.18159)"
             id="g991">
            <path
               inkscape:connector-curvature="0"
               id="path993"
               style="fill:none;stroke:#564932;stroke-width:0.095;stroke-linecap:butt;stroke-linejoin:round;stroke-miterlimit:2.61299992;stroke-dasharray:none;stroke-opacity:1"
               d="M 0,0 1.126,2.541 2.235,0 Z M 6.745,-2.549 2.603,6.871 H -1.466 C -0.932,6.49 -0.345,5.852 -0.098,5.291 L -3.552,-2.555 C -3.914,-3.367 -4.184,-3.748 -5.04,-4.543 h 4.092 c -0.518,0.588 -0.574,1.09 -0.363,1.586 0,0 0.225,0.506 0.374,0.848 H 3.172 L 3.533,-2.957 C 3.775,-3.494 3.775,-3.822 3.194,-4.543 h 5.115 c -0.839,0.744 -1.19,1.135 -1.564,1.994 z" />
          </g>
          <g
             transform="matrix(1.108576,0,0,1.108576,507.89632,549.01003)"
             id="g995">
            <path
               inkscape:connector-curvature="0"
               id="path997"
               style="fill:#ffffff;fill-opacity:1;fill-rule:evenodd;stroke:none"
               d="m 0,0 h -4.683 c 0.477,-0.496 0.776,-0.969 0.776,-1.787 v -0.047 l -3.689,-4.375 v 4.422 c 0,0.818 0.298,1.291 0.775,1.787 h -4.688 c 0.488,-0.496 0.781,-0.969 0.781,-1.787 v -7.846 c 0,-0.812 -0.293,-1.279 -0.781,-1.781 h 4.688 c -0.477,0.502 -0.775,0.969 -0.775,1.781 v 0.086 l 3.689,4.381 v -4.467 c 0,-0.812 -0.299,-1.279 -0.776,-1.781 H 0 c -0.477,0.502 -0.776,0.969 -0.776,1.781 v 7.846 c 0,0.818 0.299,1.291 0.776,1.787" />
          </g>
          <g
             transform="matrix(1.108576,0,0,1.108576,507.89632,549.01003)"
             id="g999">
            <path
               inkscape:connector-curvature="0"
               id="path1001"
               style="fill:none;stroke:#564932;stroke-width:0.095;stroke-linecap:butt;stroke-linejoin:round;stroke-miterlimit:2.61299992;stroke-dasharray:none;stroke-opacity:1"
               d="m 0,0 h -4.683 c 0.477,-0.496 0.776,-0.969 0.776,-1.787 v -0.047 l -3.689,-4.375 v 4.422 c 0,0.818 0.298,1.291 0.775,1.787 h -4.688 c 0.488,-0.496 0.781,-0.969 0.781,-1.787 v -7.846 c 0,-0.812 -0.293,-1.279 -0.781,-1.781 h 4.688 c -0.477,0.502 -0.775,0.969 -0.775,1.781 v 0.086 l 3.689,4.381 v -4.467 c 0,-0.812 -0.299,-1.279 -0.776,-1.781 H 0 c -0.477,0.502 -0.776,0.969 -0.776,1.781 v 7.846 c 0,0.818 0.299,1.291 0.776,1.787 z" />
          </g>
          <g
             transform="matrix(1.108576,0,0,1.108576,473.82964,519.75875)"
             id="g1003">
            <path
               inkscape:connector-curvature="0"
               id="path1005"
               style="fill:#ffffff;fill-opacity:1;fill-rule:evenodd;stroke:none"
               d="M 0,0 C 0,-0.168 -0.046,-0.213 -0.167,-0.213 H -2.77 c 0.379,0.738 0.455,1.586 0.455,2.818 v 4.083 c 0,0.126 0.045,0.224 0.217,0.224 L 0,6.912 Z M 3.132,0.461 V 7.27 c 0,0.818 0.299,1.291 0.776,1.787 H -5.407 C -4.924,8.561 -4.631,8.088 -4.631,7.27 V 2.605 c 0,-1.982 -0.356,-2.824 -2.207,-3.585 v -2.778 c 0.919,0.824 2.275,1.401 3.523,1.401 h 4.223 c 1.499,0 2.706,-0.756 3.522,-1.401 v 2.865 C 3.632,-0.65 3.132,-0.375 3.132,0.461" />
          </g>
          <g
             transform="matrix(1.108576,0,0,1.108576,473.82964,519.75875)"
             id="g1007">
            <path
               inkscape:connector-curvature="0"
               id="path1009"
               style="fill:none;stroke:#564932;stroke-width:0.095;stroke-linecap:butt;stroke-linejoin:round;stroke-miterlimit:2.61299992;stroke-dasharray:none;stroke-opacity:1"
               d="M 0,0 C 0,-0.168 -0.046,-0.213 -0.167,-0.213 H -2.77 c 0.379,0.738 0.455,1.586 0.455,2.818 v 4.083 c 0,0.126 0.045,0.224 0.217,0.224 L 0,6.912 Z M 3.132,0.461 V 7.27 c 0,0.818 0.299,1.291 0.776,1.787 H -5.407 C -4.924,8.561 -4.631,8.088 -4.631,7.27 V 2.605 c 0,-1.982 -0.356,-2.824 -2.207,-3.585 v -2.778 c 0.919,0.824 2.275,1.401 3.523,1.401 h 4.223 c 1.499,0 2.706,-0.756 3.522,-1.401 v 2.865 C 3.632,-0.65 3.132,-0.375 3.132,0.461 Z" />
          </g>
          <g
             transform="matrix(1.108576,0,0,1.108576,499.13734,523.06933)"
             id="g1011">
            <path
               inkscape:connector-curvature="0"
               id="path1013"
               style="fill:#ffffff;fill-opacity:1;fill-rule:evenodd;stroke:none"
               d="m 0,0 h -0.667 v 3.949 h 0.489 C 0.644,3.949 1.201,3.781 1.546,3.441 1.834,3.148 1.977,2.715 1.977,2.109 1.977,0.646 1.362,0 0,0 M 6.39,6.07 5.052,2.951 C 4.913,3.654 4.592,4.271 4.097,4.768 3.246,5.615 1.937,6.07 0.316,6.07 h -4.883 c 0.476,-0.496 0.775,-0.968 0.775,-1.787 v -7.846 c 0,-0.812 -0.299,-1.279 -0.775,-1.781 h 4.681 c -0.482,0.502 -0.781,0.969 -0.781,1.781 v 1.418 h 0.983 c 1.518,0 2.833,0.485 3.712,1.36 0.725,0.738 1.116,1.73 1.116,2.873 0,0.23 -0.019,0.449 -0.053,0.662 0.88,0.656 1.701,1.182 2.643,1.182 L 9.17,3.926 v -7.489 c 0,-0.812 -0.292,-1.279 -0.774,-1.781 h 4.682 c -0.477,0.502 -0.775,0.969 -0.775,1.781 v 7.489 h 0.999 c 0.954,0 1.166,-0.156 1.741,-1.037 l 1.391,3.181 z" />
          </g>
          <g
             transform="matrix(1.108576,0,0,1.108576,499.13734,523.06933)"
             id="g1015">
            <path
               inkscape:connector-curvature="0"
               id="path1017"
               style="fill:none;stroke:#564932;stroke-width:0.095;stroke-linecap:butt;stroke-linejoin:round;stroke-miterlimit:2.61299992;stroke-dasharray:none;stroke-opacity:1"
               d="m 0,0 h -0.667 v 3.949 h 0.489 C 0.644,3.949 1.201,3.781 1.546,3.441 1.834,3.148 1.977,2.715 1.977,2.109 1.977,0.646 1.362,0 0,0 Z M 6.39,6.07 5.052,2.951 C 4.913,3.654 4.592,4.271 4.097,4.768 3.246,5.615 1.937,6.07 0.316,6.07 h -4.883 c 0.476,-0.496 0.775,-0.968 0.775,-1.787 v -7.846 c 0,-0.812 -0.299,-1.279 -0.775,-1.781 h 4.681 c -0.482,0.502 -0.781,0.969 -0.781,1.781 v 1.418 h 0.983 c 1.518,0 2.833,0.485 3.712,1.36 0.725,0.738 1.116,1.73 1.116,2.873 0,0.23 -0.019,0.449 -0.053,0.662 0.88,0.656 1.701,1.182 2.643,1.182 L 9.17,3.926 v -7.489 c 0,-0.812 -0.292,-1.279 -0.774,-1.781 h 4.682 c -0.477,0.502 -0.775,0.969 -0.775,1.781 v 7.489 h 0.999 c 0.954,0 1.166,-0.156 1.741,-1.037 l 1.391,3.181 z" />
          </g>
          <g
             transform="matrix(1.108576,0,0,1.108576,422.61528,519.28035)"
             id="g1019">
            <path
               inkscape:connector-curvature="0"
               id="path1021"
               style="fill:#ffffff;fill-opacity:1;fill-rule:evenodd;stroke:none"
               d="m 0,0 c -2.109,0 -3.631,2.006 -3.631,4.703 0,2.354 1.2,4.67 3.631,4.67 1.925,0 2.586,-0.762 3.321,-1.74 l 1.845,4.201 c -0.678,-0.438 -1.322,-0.68 -2.115,-0.68 -0.867,0 -1.81,0.393 -3.199,0.393 -4.184,0 -6.988,-2.756 -6.988,-6.844 0,-3.973 2.533,-6.877 6.785,-6.877 2.409,0 4.051,1.096 5.097,2.6 L 3.839,2.432 C 2.913,1.037 1.885,0 0,0" />
          </g>
          <g
             transform="matrix(1.108576,0,0,1.108576,422.61528,519.28035)"
             id="g1023">
            <path
               inkscape:connector-curvature="0"
               id="path1025"
               style="fill:none;stroke:#564932;stroke-width:0.095;stroke-linecap:butt;stroke-linejoin:round;stroke-miterlimit:2.61299992;stroke-dasharray:none;stroke-opacity:1"
               d="m 0,0 c -2.109,0 -3.631,2.006 -3.631,4.703 0,2.354 1.2,4.67 3.631,4.67 1.925,0 2.586,-0.762 3.321,-1.74 l 1.845,4.201 c -0.678,-0.438 -1.322,-0.68 -2.115,-0.68 -0.867,0 -1.81,0.393 -3.199,0.393 -4.184,0 -6.988,-2.756 -6.988,-6.844 0,-3.973 2.533,-6.877 6.785,-6.877 2.409,0 4.051,1.096 5.097,2.6 L 3.839,2.432 C 2.913,1.037 1.885,0 0,0 Z" />
          </g>
          <g
             transform="matrix(1.108576,0,0,1.108576,436.58506,527.42127)"
             id="g1027">
            <path
               inkscape:connector-curvature="0"
               id="path1029"
               style="fill:#ffffff;fill-opacity:1;fill-rule:evenodd;stroke:none"
               d="M 0,0 C 0.954,0 1.166,-0.156 1.74,-1.037 L 3.132,2.145 H -7.269 l -1.477,-3.459 c 0.942,0.726 1.815,1.32 2.822,1.32 L -4.311,0 v -7.488 c 0,-0.813 -0.292,-1.28 -0.774,-1.782 h 4.689 c -0.484,0.502 -0.777,0.969 -0.777,1.782 V 0 Z" />
          </g>
          <g
             transform="matrix(1.108576,0,0,1.108576,436.58506,527.42127)"
             id="g1031">
            <path
               inkscape:connector-curvature="0"
               id="path1033"
               style="fill:none;stroke:#564932;stroke-width:0.095;stroke-linecap:butt;stroke-linejoin:round;stroke-miterlimit:2.61299992;stroke-dasharray:none;stroke-opacity:1"
               d="M 0,0 C 0.954,0 1.166,-0.156 1.74,-1.037 L 3.132,2.145 H -7.269 l -1.477,-3.459 c 0.942,0.726 1.815,1.32 2.822,1.32 L -4.311,0 v -7.488 c 0,-0.813 -0.292,-1.28 -0.774,-1.782 h 4.689 c -0.484,0.502 -0.777,0.969 -0.777,1.782 V 0 Z" />
          </g>
          <g
             transform="matrix(1.108576,0,0,1.108576,422.09326,548.95809)"
             id="g1035">
            <path
               inkscape:connector-curvature="0"
               id="path1037"
               style="fill:#564932;fill-opacity:1;fill-rule:evenodd;stroke:none"
               d="m 0,0 h -1.121 v -5.793 h 1.334 c 1.534,0 3.01,0.611 3.01,3.037 C 3.223,-0.541 1.621,0 0,0 m 0.586,-7.137 h -1.707 v -2.23 c 0,-0.871 0.213,-1.303 0.357,-1.498 h -3.063 c 0.138,0.195 0.391,0.627 0.391,1.498 v 9.189 c 0,0.871 -0.253,1.291 -0.391,1.492 h 4.413 c 3.138,0 5.062,-1.568 5.062,-4.085 0,-2.987 -2.441,-4.366 -5.062,-4.366" />
          </g>
          <g
             transform="matrix(1.108576,0,0,1.108576,440.88446,547.02889)"
             id="g1039">
            <path
               inkscape:connector-curvature="0"
               id="path1041"
               style="fill:#564932;fill-opacity:1;fill-rule:evenodd;stroke:none"
               d="m 0,0 -3.734,-8.768 c -1.087,-2.554 -2.052,-4.019 -4.241,-4.019 -1.316,0 -2.258,0.715 -2.741,1.193 l 0.586,1.252 c 0.569,-0.98 1.304,-1.388 2.224,-1.388 1.269,0 2.068,1.082 2.89,3.054 L -8.958,0 c -0.258,0.576 -0.511,1.061 -0.798,1.291 h 3.085 C -6.78,1.01 -6.78,0.773 -6.458,0 L -3.878,-6.018 -1.385,0 c 0.27,0.629 0.339,0.922 0.213,1.291 H 0.701 C 0.414,0.922 0.236,0.559 0,0" />
          </g>
          <g
             transform="matrix(1.108576,0,0,1.108576,449.1782,547.56575)"
             id="g1043">
            <path
               inkscape:connector-curvature="0"
               id="path1045"
               style="fill:#564932;fill-opacity:1;fill-rule:evenodd;stroke:none"
               d="m 0,0 c -2.35,0 -3.384,-2.213 -3.384,-4.398 0,-3.178 1.884,-4.422 3.384,-4.422 1.477,0 2.419,0.709 3.166,1.677 l 0.379,-0.841 c -0.924,-1.235 -2.338,-1.84 -3.849,-1.84 -3.529,0 -5.344,2.445 -5.344,5.426 0,3.222 2.12,5.4 5.522,5.4 1.281,0 2.051,-0.346 2.724,-0.346 0.413,0 0.66,0.041 0.965,0.18 L 2.724,-1.09 C 2.121,-0.34 1.207,0 0,0" />
          </g>
          <g
             transform="matrix(1.108576,0,0,1.108576,461.02666,547.56575)"
             id="g1047">
            <path
               inkscape:connector-curvature="0"
               id="path1049"
               style="fill:#564932;fill-opacity:1;fill-rule:evenodd;stroke:none"
               d="m 0,0 c -2.356,0 -3.385,-2.213 -3.385,-4.398 0,-3.178 1.885,-4.422 3.385,-4.422 1.471,0 2.419,0.709 3.166,1.677 l 0.373,-0.841 c -0.925,-1.235 -2.332,-1.84 -3.844,-1.84 -3.528,0 -5.343,2.445 -5.343,5.426 0,3.222 2.12,5.4 5.522,5.4 1.281,0 2.045,-0.346 2.723,-0.346 0.408,0 0.661,0.041 0.96,0.18 L 2.718,-1.09 C 2.114,-0.34 1.207,0 0,0" />
          </g>
          <g
             transform="matrix(1.108576,0,0,1.108576,470.35852,547.02889)"
             id="g1051">
            <path
               inkscape:connector-curvature="0"
               id="path1053"
               style="fill:#564932;fill-opacity:1;fill-rule:evenodd;stroke:none"
               d="M 0,0 C 0,0.75 0.195,1.113 0.321,1.291 H -2.454 C -2.333,1.113 -2.138,0.75 -2.138,0 v -7.846 c 0,-0.744 -0.195,-1.101 -0.316,-1.279 H 0.321 C 0.195,-8.947 0,-8.59 0,-7.846 Z" />
          </g>
          <g
             transform="matrix(1.108576,0,0,1.108576,478.5754,536.91317)"
             id="g1055">
            <path
               inkscape:connector-curvature="0"
               id="path1057"
               style="fill:#564932;fill-opacity:1;fill-rule:evenodd;stroke:none"
               d="m 0,0 c -0.287,0.213 -0.753,0.715 -1.23,1.279 l -3.786,4.594 3.412,3.252 c 0.748,0.721 0.995,0.969 1.443,1.291 h -2.85 C -2.798,10.111 -2.729,9.754 -3.367,9.125 L -7.303,5.371 -3.901,1.279 C -3.333,0.588 -3.333,0.299 -3.545,0 Z" />
          </g>
          <g
             transform="matrix(1.108576,0,0,1.108576,489.01548,536.91317)"
             id="g1059">
            <path
               inkscape:connector-curvature="0"
               id="path1061"
               style="fill:#564932;fill-opacity:1;fill-rule:evenodd;stroke:none"
               d="M 0,0 C 0.126,0.178 0.299,0.535 0.299,1.279 V 7.107 L -4.384,1.551 V 1.279 c 0,-0.744 0.196,-1.101 0.327,-1.279 h -2.78 c 0.12,0.178 0.321,0.535 0.321,1.279 v 7.846 c 0,0.75 -0.201,1.113 -0.321,1.291 h 2.78 C -4.188,10.238 -4.384,9.875 -4.384,9.125 V 3.338 l 4.683,5.557 v 0.23 c 0,0.75 -0.173,1.113 -0.299,1.291 H 2.741 C 2.615,10.238 2.442,9.875 2.442,9.125 V 1.279 C 2.442,0.535 2.615,0.178 2.741,0 Z" />
          </g>
          <g
             transform="matrix(1.108576,0,0,1.108576,503.78752,536.91317)"
             id="g1063">
            <path
               inkscape:connector-curvature="0"
               id="path1065"
               style="fill:#564932;fill-opacity:1;fill-rule:evenodd;stroke:none"
               d="M 0,0 C 0.115,0.178 0.299,0.535 0.299,1.279 V 7.107 L -4.389,1.551 V 1.279 c 0,-0.744 0.201,-1.101 0.321,-1.279 h -2.781 c 0.132,0.178 0.322,0.535 0.322,1.279 v 7.846 c 0,0.75 -0.19,1.113 -0.322,1.291 h 2.781 C -4.188,10.238 -4.389,9.875 -4.389,9.125 V 3.338 l 4.688,5.557 v 0.23 c 0,0.75 -0.184,1.113 -0.299,1.291 H 2.735 C 2.609,10.238 2.431,9.875 2.431,9.125 V 1.279 C 2.431,0.535 2.609,0.178 2.735,0 Z m -2.034,12.055 c -1.799,0 -2.551,0.685 -2.551,1.324 0,0.342 0.178,0.732 0.454,0.963 h 0.937 c -0.161,-0.248 -0.248,-0.449 -0.248,-0.766 0,-0.351 0.425,-1.015 1.408,-1.015 0.977,0 1.391,0.664 1.391,1.015 0,0.317 -0.092,0.518 -0.253,0.766 h 0.942 c 0.27,-0.231 0.449,-0.621 0.449,-0.963 0,-0.639 -0.73,-1.324 -2.529,-1.324" />
          </g>
          <g
             transform="matrix(1.108576,0,0,1.108576,422.61528,530.21447)"
             id="g1067">
            <path
               inkscape:connector-curvature="0"
               id="path1069"
               style="fill:#564932;fill-opacity:1;fill-rule:evenodd;stroke:none"
               d="m 0,0 c -2.758,0 -4.131,-2.588 -4.131,-5.16 0,-3.735 2.372,-5.199 4.131,-5.199 1.735,0 2.851,0.824 3.724,1.964 l 0.448,-0.984 c -1.086,-1.459 -2.74,-2.162 -4.523,-2.162 -4.13,0 -6.292,2.883 -6.292,6.381 0,3.787 2.494,6.348 6.483,6.348 1.516,0 2.412,-0.399 3.211,-0.399 0.5,0 0.781,0.041 1.138,0.197 L 3.195,-1.279 C 2.482,-0.404 1.432,0 0,0" />
          </g>
          <g
             transform="matrix(1.108576,0,0,1.108576,438.38764,527.34559)"
             id="g1071">
            <path
               inkscape:connector-curvature="0"
               id="path1073"
               style="fill:#564932;fill-opacity:1;fill-rule:evenodd;stroke:none"
               d="m 0,0 c -0.431,0.553 -1.058,0.57 -1.626,0.57 h -1.672 v -7.99 c 0,-0.744 0.195,-1.101 0.321,-1.279 h -2.781 c 0.127,0.178 0.322,0.535 0.322,1.279 V 0.57 H -6.844 C -7.625,0.57 -8.372,0.668 -9.321,0 l 0.748,1.717 h 9.314 z" />
          </g>
          <g
             transform="matrix(1.108576,0,0,1.108576,444.73822,526.37999)"
             id="g1075">
            <path
               inkscape:connector-curvature="0"
               id="path1077"
               style="fill:#564932;fill-opacity:1;fill-rule:evenodd;stroke:none"
               d="M 0,0 -1.896,-4.295 H 1.873 Z M 2.937,-7.828 C 3.063,-7.65 3.172,-7.24 2.861,-6.549 L 2.367,-5.402 H -2.385 L -2.89,-6.549 C -3.194,-7.24 -3.08,-7.65 -2.959,-7.828 H -5.04 c 0.231,0.23 0.477,0.535 0.817,1.279 l 3.545,8.065 -0.034,0.076 C -0.925,2.086 -1.16,2.375 -1.408,2.588 H 1.155 L 5.16,-6.549 c 0.345,-0.744 0.592,-1.049 0.821,-1.279 z" />
          </g>
          <g
             transform="matrix(1.108576,0,0,1.108576,461.04526,517.70193)"
             id="g1079">
            <path
               inkscape:connector-curvature="0"
               id="path1081"
               style="fill:#564932;fill-opacity:1;fill-rule:evenodd;stroke:none"
               d="M 0,0 C 0.126,0.178 0.322,0.535 0.322,1.279 V 4.801 H -4.057 V 1.279 c 0,-0.744 0.213,-1.101 0.323,-1.279 h -2.782 c 0.126,0.178 0.322,0.535 0.322,1.279 v 7.846 c 0,0.75 -0.196,1.113 -0.322,1.291 h 2.782 C -3.844,10.238 -4.057,9.875 -4.057,9.125 V 5.949 h 4.379 v 3.176 c 0,0.75 -0.196,1.113 -0.322,1.291 H 2.781 C 2.672,10.238 2.459,9.875 2.459,9.125 V 1.279 C 2.459,0.535 2.672,0.178 2.781,0 Z" />
          </g>
          <g
             transform="matrix(1.108576,0,0,1.108576,474.37738,527.97781)"
             id="g1083">
            <path
               inkscape:connector-curvature="0"
               id="path1085"
               style="fill:#564932;fill-opacity:1;fill-rule:evenodd;stroke:none"
               d="M 0,0 H -2.706 C -3.045,0 -3.31,-0.266 -3.31,-0.588 v -4.221 c 0,-1.527 -0.217,-2.623 -0.874,-3.32 h 3.58 c 0.34,0 0.604,0.272 0.604,0.611 z M 0.414,-9.27 H -3.81 c -0.781,0 -2.08,-0.289 -3.028,-0.951 v 1.504 c 1.816,0.836 2.206,1.949 2.206,3.908 v 4.664 c 0,0.75 -0.194,1.114 -0.321,1.291 H 2.46 C 2.333,0.969 2.138,0.605 2.138,-0.145 v -6.808 c 0,-0.742 0.31,-1.377 1.299,-1.705 v -1.563 C 2.494,-9.559 1.195,-9.27 0.414,-9.27" />
          </g>
          <g
             transform="matrix(1.108576,0,0,1.108576,486.04778,526.37999)"
             id="g1087">
            <path
               inkscape:connector-curvature="0"
               id="path1089"
               style="fill:#564932;fill-opacity:1;fill-rule:evenodd;stroke:none"
               d="m 0,0 -1.891,-4.295 h 3.764 z m 2.936,-7.828 c 0.127,0.178 0.23,0.588 -0.069,1.279 l -0.494,1.147 h -4.764 l -0.5,-1.147 C -3.189,-7.24 -3.08,-7.65 -2.96,-7.828 h -2.08 c 0.23,0.23 0.483,0.535 0.822,1.279 l 3.545,8.065 -0.046,0.076 C -0.925,2.086 -1.156,2.375 -1.408,2.588 H 1.154 L 5.16,-6.549 c 0.339,-0.744 0.586,-1.049 0.821,-1.279 z" />
          </g>
          <g
             transform="matrix(1.108576,0,0,1.108576,498.94028,528.00373)"
             id="g1091">
            <path
               inkscape:connector-curvature="0"
               id="path1093"
               style="fill:#564932;fill-opacity:1;fill-rule:evenodd;stroke:none"
               d="m 0,0 h -0.982 v -4.953 h 1.16 c 1.293,0 2.476,0.531 2.476,2.611 C 2.654,-0.451 1.391,0 0,0 m 0.494,-6.1 h -1.476 v -1.914 c 0,-0.744 0.217,-1.101 0.321,-1.279 h -2.775 c 0.121,0.178 0.316,0.535 0.316,1.279 v 7.846 c 0,0.75 -0.195,1.113 -0.316,1.291 h 3.93 c 2.695,0 4.332,-1.326 4.332,-3.486 0,-2.549 -2.085,-3.737 -4.332,-3.737" />
          </g>
          <g
             transform="matrix(1.108576,0,0,1.108576,515.6805,527.34559)"
             id="g1095">
            <path
               inkscape:connector-curvature="0"
               id="path1097"
               style="fill:#564932;fill-opacity:1;fill-rule:evenodd;stroke:none"
               d="m 0,0 c -0.432,0.553 -1.051,0.57 -1.621,0.57 h -1.493 v -7.99 c 0,-0.744 0.189,-1.101 0.315,-1.279 h -2.774 c 0.126,0.178 0.315,0.535 0.315,1.279 V 0.57 H -6.481 C -7.27,0.57 -8.016,0.668 -8.959,0 l 0.748,1.717 h 8.958 z" />
          </g>
        </g>
      </g>
    </g>
  </g>
</svg>
