<svg width="274" height="274" viewBox="0 0 274 274" fill="none" xmlns="http://www.w3.org/2000/svg">
<circle cx="137" cy="137" r="137" fill="#DED8CE"/>
<path d="M135.5 73C99.9925 73 70 102.992 70 138.5C70 159.388 80.4276 178.311 96.2 190.402V190.9H96.8681C107.794 199.055 121.175 204 135.5 204C149.825 204 163.207 199.055 174.132 190.9H174.8V190.402C190.572 178.311 201 159.395 201 138.5C201 102.992 171.008 73 135.5 73ZM109.785 183.872C110.75 179.506 113.175 175.599 116.659 172.796C120.143 169.993 124.478 168.461 128.95 168.453H142.05C146.521 168.462 150.856 169.994 154.34 172.797C157.824 175.6 160.249 179.506 161.215 183.872C153.565 188.306 144.775 190.9 135.5 190.9C126.225 190.9 117.435 188.306 109.785 183.872ZM172.246 175.449C169.747 169.5 165.55 164.421 160.179 160.847C154.808 157.272 148.502 155.361 142.05 155.353H128.95C122.498 155.361 116.192 157.272 110.821 160.847C105.45 164.421 101.253 169.5 98.7545 175.449C89.1456 165.892 83.1 152.753 83.1 138.5C83.1 110.093 107.093 86.1 135.5 86.1C163.907 86.1 187.9 110.093 187.9 138.5C187.9 152.753 181.854 165.892 172.246 175.449Z" fill="#F1EEEA"/>
<path d="M135.5 99C120.965 99 110 110.18 110 125C110 139.82 120.965 151 135.5 151C150.035 151 161 139.82 161 125C161 110.18 150.035 99 135.5 99ZM135.5 138C127.99 138 122.75 132.657 122.75 125C122.75 117.343 127.99 112 135.5 112C143.01 112 148.25 117.343 148.25 125C148.25 132.657 143.01 138 135.5 138Z" fill="#F1EEEA"/>
</svg>
