<!-- Generated by IcoMoon.io -->
<svg version="1.1" xmlns="http://www.w3.org/2000/svg" width="1024" height="1024" viewBox="0 0 1024 1024">
<title></title>
<g id="icomoon-ignore">
</g>
<path d="M870.402 0h-716.802c-56.473 0-102.4 45.927-102.4 102.4v819.201c0 56.475 45.927 102.399 102.4 102.399h716.802c56.47 0 102.399-45.924 102.399-102.399v-819.201c0-56.473-45.929-102.4-102.399-102.4zM153.599 921.601v-819.201h716.802l0.051 819.201h-716.853z"></path>
<path d="M256.012 511.995h102.4v102.399h-102.4v-102.399zM256.012 716.796h102.4v102.399h-102.4v-102.399zM460.813 511.995h102.399v102.399h-102.399v-102.399zM256.012 204.795h512.002v204.801h-512.002v-204.801zM460.813 716.796h102.399v102.399h-102.399v-102.399zM665.611 511.995h102.402v307.2h-102.402v-307.2z"></path>
</svg>
