<svg xmlns="http://www.w3.org/2000/svg" viewBox="0 0 19.05 14.023"><g fill="none"><path stroke="#a97444" stroke-width=".26458" d="M12.898 6.535a.397.397 0 0 1 0 .688L7.74 10.202a.397.397 0 0 1-.595-.344V3.9c0-.305.33-.496.595-.343z"/><path style="line-height:normal;font-variant-ligatures:normal;font-variant-position:normal;font-variant-caps:normal;font-variant-numeric:normal;font-variant-alternates:normal;font-feature-settings:normal;text-indent:0;text-align:start;text-decoration-line:none;text-decoration-style:solid;text-decoration-color:#000;text-transform:none;text-orientation:mixed;white-space:normal;shape-padding:0;isolation:auto;mix-blend-mode:normal;solid-color:#000;solid-opacity:1" fill="#a97444" d="M3.969 0A3.963 3.963 0 0 0 0 3.969v6.085a3.963 3.963 0 0 0 3.969 3.969H15.08a3.963 3.963 0 0 0 3.969-3.969V3.97A3.963 3.963 0 0 0 15.081 0zm0 .265H15.08a3.693 3.693 0 0 1 3.704 3.704v6.085a3.693 3.693 0 0 1-3.704 3.704H3.97a3.693 3.693 0 0 1-3.704-3.704V3.97A3.693 3.693 0 0 1 3.969.265z" color="#000" font-family="sans-serif" font-weight="400" overflow="visible"/></g></svg>